<?xml version="1.0" encoding="utf-8"?>
<!-- Generator: Adobe Illustrator 23.1.1, SVG Export Plug-In . SVG Version: 6.00 Build 0)  -->
<svg version="1.1" id="Layer_1" xmlns="http://www.w3.org/2000/svg" xmlns:xlink="http://www.w3.org/1999/xlink" x="0px" y="0px"
	 viewBox="0 0 366.6 493.1" style="enable-background:new 0 0 366.6 493.1;" xml:space="preserve">
<style type="text/css">
	.st0{fill:none;stroke:#000000;stroke-width:2;stroke-miterlimit:10;}
</style>
<title>Asset 10</title>
<g>
	<g id="Layer_1-2">
		<line class="st0" x1="117.6" y1="0" x2="117.6" y2="309.3"/>
		<path class="st0" d="M244,355.8l-1.7-27c-106.3-25.7-169.1-20.2-202-11.9c-20.4,5.2-35.5,22.5-37.8,43.5
			c-2,18.4,1.9,28.6,1.9,28.6"/>
		<path class="st0" d="M363.3,428.1c4.7-23.1-4.5-41.7-12.8-53c-5.6-7.7-14.1-12.7-23.6-14c-73.1-10-114.7-4.4-137.9,3.5
			c-16.9,5.8-28.9,20.7-31.1,38.4c-6.1,46.6,1.1,89.8,1.1,89.8"/>
	</g>
</g>
</svg>
