<svg xmlns="http://www.w3.org/2000/svg" viewBox="0 0 251.92 383.89"><defs><style>.cls-1{fill:#231f20;}</style></defs><title>Asset 13</title><g id="Layer_2" data-name="Layer 2"><g id="vectors"><rect class="cls-1" x="158.7" y="54.04" width="144.09" height="36.01" transform="translate(158.7 302.79) rotate(-90)"/><path class="cls-1" d="M144,347.89A72,72,0,0,1,72.08,276h-36a107.92,107.92,0,1,0,215.84,0h-36A72,72,0,0,1,144,347.89Z"/><path class="cls-1" d="M72,72a36,36,0,0,1,36,36h36A72,72,0,0,0,0,108H36A36,36,0,0,1,72,72Z"/><path class="cls-1" d="M126.09,234.28h-36a72,72,0,0,1,72-72v36A36,36,0,0,0,126.09,234.28Z"/></g></g></svg>