<svg xmlns="http://www.w3.org/2000/svg" viewBox="0 0 350.17 402.7"><defs><style>.cls-1{fill:#231f20;}</style></defs><title>Asset 14</title><g id="Layer_2" data-name="Layer 2"><g id="vectors"><polygon class="cls-1" points="126.08 312.7 89.83 312.7 161.92 132.55 198.17 132.55 126.08 312.7"/><path class="cls-1" d="M278.17,36a36,36,0,1,1-36,36,36,36,0,0,1,36-36m0-36a72,72,0,1,0,72,72,72,72,0,0,0-72-72Z"/><path class="cls-1" d="M72,59.85a36,36,0,0,1,36,36h36a72,72,0,0,0-144,0H36A36,36,0,0,1,72,59.85Z"/><path class="cls-1" d="M245.82,324.52A143.05,143.05,0,0,1,144,366.7v36a180,180,0,0,0,180-180H288A143.05,143.05,0,0,1,245.82,324.52Z"/></g></g></svg>