<svg xmlns="http://www.w3.org/2000/svg" viewBox="0 0 757.84 650.34"><defs><style>.cls-1{fill:#231f20;}</style></defs><title>Asset 12</title><g id="Layer_2" data-name="Layer 2"><g id="vectors"><polygon class="cls-1" points="199.55 506.93 163.3 506.93 307.48 146.62 343.73 146.62 199.55 506.93"/><rect class="cls-1" x="325.61" y="452.07" width="36.25" height="360.3" transform="translate(975.95 288.49) rotate(90)"/><path class="cls-1" d="M577.84,36A144,144,0,0,1,679.66,281.82,144,144,0,0,1,476,78.18,143.06,143.06,0,0,1,577.84,36m0-36a180,180,0,1,0,180,180,180,180,0,0,0-180-180Z"/><path class="cls-1" d="M107.92,108.08A71.92,71.92,0,1,1,36,180a72,72,0,0,1,71.92-71.92m0-36A107.92,107.92,0,1,0,215.85,180,107.92,107.92,0,0,0,107.92,72.08Z"/></g></g></svg>